<svg width="52" height="52" viewBox="0 0 52 52" fill="none" xmlns="http://www.w3.org/2000/svg">
<g filter="url(#filter0_d_38_4785)">
<rect x="10" y="10" width="32" height="32" rx="6" fill="white"/>
<path d="M19 31.25H33V24.281C33 20.398 29.866 17.25 26 17.25C22.134 17.25 19 20.398 19 24.281V31.25ZM26 15.25C30.97 15.25 35 19.293 35 24.281V33.25H17V24.281C17 19.293 21.03 15.25 26 15.25ZM23.5 34.25H28.5C28.5 34.913 28.2366 35.5489 27.7678 36.0178C27.2989 36.4866 26.663 36.75 26 36.75C25.337 36.75 24.7011 36.4866 24.2322 36.0178C23.7634 35.5489 23.5 34.913 23.5 34.25Z" fill="black"/>
</g>
<defs>
<filter id="filter0_d_38_4785" x="0" y="0" width="52" height="52" filterUnits="userSpaceOnUse" color-interpolation-filters="sRGB">
<feFlood flood-opacity="0" result="BackgroundImageFix"/>
<feColorMatrix in="SourceAlpha" type="matrix" values="0 0 0 0 0 0 0 0 0 0 0 0 0 0 0 0 0 0 127 0" result="hardAlpha"/>
<feOffset/>
<feGaussianBlur stdDeviation="5"/>
<feComposite in2="hardAlpha" operator="out"/>
<feColorMatrix type="matrix" values="0 0 0 0 0 0 0 0 0 0 0 0 0 0 0 0 0 0 0.1 0"/>
<feBlend mode="normal" in2="BackgroundImageFix" result="effect1_dropShadow_38_4785"/>
<feBlend mode="normal" in="SourceGraphic" in2="effect1_dropShadow_38_4785" result="shape"/>
</filter>
</defs>
</svg>
